<svg width="42" height="42" viewBox="0 0 42 42" fill="none" xmlns="http://www.w3.org/2000/svg">
<path d="M21 21.4375C19.7021 21.4375 18.4333 21.0526 17.3541 20.3315C16.2749 19.6104 15.4337 18.5855 14.937 17.3864C14.4403 16.1872 14.3104 14.8677 14.5636 13.5947C14.8168 12.3217 15.4418 11.1524 16.3596 10.2346C17.2774 9.31683 18.4467 8.69182 19.7197 8.4386C20.9927 8.18538 22.3122 8.31534 23.5114 8.81204C24.7105 9.30874 25.7354 10.1499 26.4565 11.2291C27.1776 12.3083 27.5625 13.5771 27.5625 14.875C27.5625 16.6155 26.8711 18.2847 25.6404 19.5154C24.4097 20.7461 22.7405 21.4375 21 21.4375ZM21 10.9375C20.2212 10.9375 19.46 11.1684 18.8124 11.6011C18.1649 12.0337 17.6602 12.6487 17.3622 13.3682C17.0642 14.0877 16.9862 14.8794 17.1382 15.6432C17.2901 16.407 17.6651 17.1086 18.2158 17.6592C18.7664 18.2099 19.468 18.5849 20.2318 18.7368C20.9956 18.8888 21.7873 18.8108 22.5068 18.5128C23.2263 18.2148 23.8413 17.7101 24.2739 17.0626C24.7066 16.415 24.9375 15.6538 24.9375 14.875C24.9375 13.8307 24.5227 12.8292 23.7842 12.0908C23.0458 11.3523 22.0443 10.9375 21 10.9375ZM33.25 33.6875C32.9033 33.683 32.5721 33.5432 32.3269 33.2981C32.0818 33.0529 31.942 32.7217 31.9375 32.375C31.9375 28.9625 30.0825 26.6875 21 26.6875C11.9175 26.6875 10.0625 28.9625 10.0625 32.375C10.0625 32.7231 9.92422 33.0569 9.67808 33.3031C9.43194 33.5492 9.0981 33.6875 8.75 33.6875C8.4019 33.6875 8.06806 33.5492 7.82192 33.3031C7.57578 33.0569 7.4375 32.7231 7.4375 32.375C7.4375 24.0625 16.94 24.0625 21 24.0625C25.06 24.0625 34.5625 24.0625 34.5625 32.375C34.558 32.7217 34.4182 33.0529 34.1731 33.2981C33.9279 33.5432 33.5967 33.683 33.25 33.6875Z" fill="#11006F"/>
</svg>
